<svg width="600" height="800" viewBox="0 0 600 800" xmlns="http://www.w3.org/2000/svg">
  <defs>
    <!-- Noise Filter for textured background -->
    <filter id="noise" x="0%" y="0%" width="100%" height="100%">
      <feTurbulence type="fractalNoise" baseFrequency="0.65" numOctaves="3" stitchTiles="stitch"/>
      <feColorMatrix type="matrix" values="1 0 0 0 0  0 1 0 0 0  0 0 1 0 0  0 0 0 0.1 0"/>
      <feComposite operator="in" in2="SourceGraphic" result="monoNoise"/>
      <feBlend in="SourceGraphic" in2="monoNoise" mode="multiply" />
    </filter>
    
    <!-- Gradient for the footer area -->
    <linearGradient id="footerGradient" x1="0%" y1="0%" x2="0%" y2="100%">
      <stop offset="0%" stop-color="#1a1a1a" stop-opacity="0.8"/>
      <stop offset="100%" stop-color="#0d0d0d" stop-opacity="1"/>
    </linearGradient>

    <!-- Gradient for main border -->
    <linearGradient id="borderGradient" x1="0%" y1="0%" x2="100%" y2="0%">
        <stop offset="0%" stop-color="#555" />
        <stop offset="50%" stop-color="#888" />
        <stop offset="100%" stop-color="#555" />
    </linearGradient>
    
    <pattern id="diagonalHatch" width="10" height="10" patternTransform="rotate(45 0 0)" patternUnits="userSpaceOnUse">
      <line x1="0" y1="0" x2="0" y2="10" style="stroke:black; stroke-width:1" />
    </pattern>
  </defs>

  <!-- Serrated Background -->
  <!-- Main dark background with transparency -->
  <path d="M 0,0 L 6.0,6.0 L 12.0,0 L 18.0,6.0 L 24.0,0 L 30.0,6.0 L 36.0,0 L 42.0,6.0 L 48.0,0 L 54.0,6.0 L 60.0,0 L 66.0,6.0 L 72.0,0 L 78.0,6.0 L 84.0,0 L 90.0,6.0 L 96.0,0 L 102.0,6.0 L 108.0,0 L 114.0,6.0 L 120.0,0 L 126.0,6.0 L 132.0,0 L 138.0,6.0 L 144.0,0 L 150.0,6.0 L 156.0,0 L 162.0,6.0 L 168.0,0 L 174.0,6.0 L 180.0,0 L 186.0,6.0 L 192.0,0 L 198.0,6.0 L 204.0,0 L 210.0,6.0 L 216.0,0 L 222.0,6.0 L 228.0,0 L 234.0,6.0 L 240.0,0 L 246.0,6.0 L 252.0,0 L 258.0,6.0 L 264.0,0 L 270.0,6.0 L 276.0,0 L 282.0,6.0 L 288.0,0 L 294.0,6.0 L 300.0,0 L 306.0,6.0 L 312.0,0 L 318.0,6.0 L 324.0,0 L 330.0,6.0 L 336.0,0 L 342.0,6.0 L 348.0,0 L 354.0,6.0 L 360.0,0 L 366.0,6.0 L 372.0,0 L 378.0,6.0 L 384.0,0 L 390.0,6.0 L 396.0,0 L 402.0,6.0 L 408.0,0 L 414.0,6.0 L 420.0,0 L 426.0,6.0 L 432.0,0 L 438.0,6.0 L 444.0,0 L 450.0,6.0 L 456.0,0 L 462.0,6.0 L 468.0,0 L 474.0,6.0 L 480.0,0 L 486.0,6.0 L 492.0,0 L 498.0,6.0 L 504.0,0 L 510.0,6.0 L 516.0,0 L 522.0,6.0 L 528.0,0 L 534.0,6.0 L 540.0,0 L 546.0,6.0 L 552.0,0 L 558.0,6.0 L 564.0,0 L 570.0,6.0 L 576.0,0 L 582.0,6.0 L 588.0,0 L 594.0,6.0 L 600.0,0 L 600,0 L 594.0,6.0 L 600,12.0 L 594.0,18.0 L 600,24.0 L 594.0,30.0 L 600,36.0 L 594.0,42.0 L 600,48.0 L 594.0,54.0 L 600,60.0 L 594.0,66.0 L 600,72.0 L 594.0,78.0 L 600,84.0 L 594.0,90.0 L 600,96.0 L 594.0,102.0 L 600,108.0 L 594.0,114.0 L 600,120.0 L 594.0,126.0 L 600,132.0 L 594.0,138.0 L 600,144.0 L 594.0,150.0 L 600,156.0 L 594.0,162.0 L 600,168.0 L 594.0,174.0 L 600,180.0 L 594.0,186.0 L 600,192.0 L 594.0,198.0 L 600,204.0 L 594.0,210.0 L 600,216.0 L 594.0,222.0 L 600,228.0 L 594.0,234.0 L 600,240.0 L 594.0,246.0 L 600,252.0 L 594.0,258.0 L 600,264.0 L 594.0,270.0 L 600,276.0 L 594.0,282.0 L 600,288.0 L 594.0,294.0 L 600,300.0 L 594.0,306.0 L 600,312.0 L 594.0,318.0 L 600,324.0 L 594.0,330.0 L 600,336.0 L 594.0,342.0 L 600,348.0 L 594.0,354.0 L 600,360.0 L 594.0,366.0 L 600,372.0 L 594.0,378.0 L 600,384.0 L 594.0,390.0 L 600,396.0 L 594.0,402.0 L 600,408.0 L 594.0,414.0 L 600,420.0 L 594.0,426.0 L 600,432.0 L 594.0,438.0 L 600,444.0 L 594.0,450.0 L 600,456.0 L 594.0,462.0 L 600,468.0 L 594.0,474.0 L 600,480.0 L 594.0,486.0 L 600,492.0 L 594.0,498.0 L 600,504.0 L 594.0,510.0 L 600,516.0 L 594.0,522.0 L 600,528.0 L 594.0,534.0 L 600,540.0 L 594.0,546.0 L 600,552.0 L 594.0,558.0 L 600,564.0 L 594.0,570.0 L 600,576.0 L 594.0,582.0 L 600,588.0 L 594.0,594.0 L 600,600.0 L 594.0,606.0 L 600,612.0 L 594.0,618.0 L 600,624.0 L 594.0,630.0 L 600,636.0 L 594.0,642.0 L 600,648.0 L 594.0,654.0 L 600,660.0 L 594.0,666.0 L 600,672.0 L 594.0,678.0 L 600,684.0 L 594.0,690.0 L 600,696.0 L 594.0,702.0 L 600,708.0 L 594.0,714.0 L 600,720.0 L 594.0,726.0 L 600,732.0 L 594.0,738.0 L 600,744.0 L 594.0,750.0 L 600,756.0 L 594.0,762.0 L 600,768.0 L 594.0,774.0 L 600,780.0 L 594.0,786.0 L 600,792.0 L 594.0,798.0 L 600,800 L 600,800 L 594.0,794.0 L 588.0,800 L 582.0,794.0 L 576.0,800 L 570.0,794.0 L 564.0,800 L 558.0,794.0 L 552.0,800 L 546.0,794.0 L 540.0,800 L 534.0,794.0 L 528.0,800 L 522.0,794.0 L 516.0,800 L 510.0,794.0 L 504.0,800 L 498.0,794.0 L 492.0,800 L 486.0,794.0 L 480.0,800 L 474.0,794.0 L 468.0,800 L 462.0,794.0 L 456.0,800 L 450.0,794.0 L 444.0,800 L 438.0,794.0 L 432.0,800 L 426.0,794.0 L 420.0,800 L 414.0,794.0 L 408.0,800 L 402.0,794.0 L 396.0,800 L 390.0,794.0 L 384.0,800 L 378.0,794.0 L 372.0,800 L 366.0,794.0 L 360.0,800 L 354.0,794.0 L 348.0,800 L 342.0,794.0 L 336.0,800 L 330.0,794.0 L 324.0,800 L 318.0,794.0 L 312.0,800 L 306.0,794.0 L 300.0,800 L 294.0,794.0 L 288.0,800 L 282.0,794.0 L 276.0,800 L 270.0,794.0 L 264.0,800 L 258.0,794.0 L 252.0,800 L 246.0,794.0 L 240.0,800 L 234.0,794.0 L 228.0,800 L 222.0,794.0 L 216.0,800 L 210.0,794.0 L 204.0,800 L 198.0,794.0 L 192.0,800 L 186.0,794.0 L 180.0,800 L 174.0,794.0 L 168.0,800 L 162.0,794.0 L 156.0,800 L 150.0,794.0 L 144.0,800 L 138.0,794.0 L 132.0,800 L 126.0,794.0 L 120.0,800 L 114.0,794.0 L 108.0,800 L 102.0,794.0 L 96.0,800 L 90.0,794.0 L 84.0,800 L 78.0,794.0 L 72.0,800 L 66.0,794.0 L 60.0,800 L 54.0,794.0 L 48.0,800 L 42.0,794.0 L 36.0,800 L 30.0,794.0 L 24.0,800 L 18.0,794.0 L 12.0,800 L 6.0,794.0 L 0.0,800 L 0,800 L 6.0,794.0 L 0,788.0 L 6.0,782.0 L 0,776.0 L 6.0,770.0 L 0,764.0 L 6.0,758.0 L 0,752.0 L 6.0,746.0 L 0,740.0 L 6.0,734.0 L 0,728.0 L 6.0,722.0 L 0,716.0 L 6.0,710.0 L 0,704.0 L 6.0,698.0 L 0,692.0 L 6.0,686.0 L 0,680.0 L 6.0,674.0 L 0,668.0 L 6.0,662.0 L 0,656.0 L 6.0,650.0 L 0,644.0 L 6.0,638.0 L 0,632.0 L 6.0,626.0 L 0,620.0 L 6.0,614.0 L 0,608.0 L 6.0,602.0 L 0,596.0 L 6.0,590.0 L 0,584.0 L 6.0,578.0 L 0,572.0 L 6.0,566.0 L 0,560.0 L 6.0,554.0 L 0,548.0 L 6.0,542.0 L 0,536.0 L 6.0,530.0 L 0,524.0 L 6.0,518.0 L 0,512.0 L 6.0,506.0 L 0,500.0 L 6.0,494.0 L 0,488.0 L 6.0,482.0 L 0,476.0 L 6.0,470.0 L 0,464.0 L 6.0,458.0 L 0,452.0 L 6.0,446.0 L 0,440.0 L 6.0,434.0 L 0,428.0 L 6.0,422.0 L 0,416.0 L 6.0,410.0 L 0,404.0 L 6.0,398.0 L 0,392.0 L 6.0,386.0 L 0,380.0 L 6.0,374.0 L 0,368.0 L 6.0,362.0 L 0,356.0 L 6.0,350.0 L 0,344.0 L 6.0,338.0 L 0,332.0 L 6.0,326.0 L 0,320.0 L 6.0,314.0 L 0,308.0 L 6.0,302.0 L 0,296.0 L 6.0,290.0 L 0,284.0 L 6.0,278.0 L 0,272.0 L 6.0,266.0 L 0,260.0 L 6.0,254.0 L 0,248.0 L 6.0,242.0 L 0,236.0 L 6.0,230.0 L 0,224.0 L 6.0,218.0 L 0,212.0 L 6.0,206.0 L 0,200.0 L 6.0,194.0 L 0,188.0 L 6.0,182.0 L 0,176.0 L 6.0,170.0 L 0,164.0 L 6.0,158.0 L 0,152.0 L 6.0,146.0 L 0,140.0 L 6.0,134.0 L 0,128.0 L 6.0,122.0 L 0,116.0 L 6.0,110.0 L 0,104.0 L 6.0,98.0 L 0,92.0 L 6.0,86.0 L 0,80.0 L 6.0,74.0 L 0,68.0 L 6.0,62.0 L 0,56.0 L 6.0,50.0 L 0,44.0 L 6.0,38.0 L 0,32.0 L 6.0,26.0 L 0,20.0 L 6.0,14.0 L 0,8.0 L 6.0,2.0 L 0,0 Z" fill="#0a0a0a" opacity="0.85" />
  
  <!-- Noise texture overlay -->
  <path d="M 0,0 L 6.0,6.0 L 12.0,0 L 18.0,6.0 L 24.0,0 L 30.0,6.0 L 36.0,0 L 42.0,6.0 L 48.0,0 L 54.0,6.0 L 60.0,0 L 66.0,6.0 L 72.0,0 L 78.0,6.0 L 84.0,0 L 90.0,6.0 L 96.0,0 L 102.0,6.0 L 108.0,0 L 114.0,6.0 L 120.0,0 L 126.0,6.0 L 132.0,0 L 138.0,6.0 L 144.0,0 L 150.0,6.0 L 156.0,0 L 162.0,6.0 L 168.0,0 L 174.0,6.0 L 180.0,0 L 186.0,6.0 L 192.0,0 L 198.0,6.0 L 204.0,0 L 210.0,6.0 L 216.0,0 L 222.0,6.0 L 228.0,0 L 234.0,6.0 L 240.0,0 L 246.0,6.0 L 252.0,0 L 258.0,6.0 L 264.0,0 L 270.0,6.0 L 276.0,0 L 282.0,6.0 L 288.0,0 L 294.0,6.0 L 300.0,0 L 306.0,6.0 L 312.0,0 L 318.0,6.0 L 324.0,0 L 330.0,6.0 L 336.0,0 L 342.0,6.0 L 348.0,0 L 354.0,6.0 L 360.0,0 L 366.0,6.0 L 372.0,0 L 378.0,6.0 L 384.0,0 L 390.0,6.0 L 396.0,0 L 402.0,6.0 L 408.0,0 L 414.0,6.0 L 420.0,0 L 426.0,6.0 L 432.0,0 L 438.0,6.0 L 444.0,0 L 450.0,6.0 L 456.0,0 L 462.0,6.0 L 468.0,0 L 474.0,6.0 L 480.0,0 L 486.0,6.0 L 492.0,0 L 498.0,6.0 L 504.0,0 L 510.0,6.0 L 516.0,0 L 522.0,6.0 L 528.0,0 L 534.0,6.0 L 540.0,0 L 546.0,6.0 L 552.0,0 L 558.0,6.0 L 564.0,0 L 570.0,6.0 L 576.0,0 L 582.0,6.0 L 588.0,0 L 594.0,6.0 L 600.0,0 L 600,0 L 594.0,6.0 L 600,12.0 L 594.0,18.0 L 600,24.0 L 594.0,30.0 L 600,36.0 L 594.0,42.0 L 600,48.0 L 594.0,54.0 L 600,60.0 L 594.0,66.0 L 600,72.0 L 594.0,78.0 L 600,84.0 L 594.0,90.0 L 600,96.0 L 594.0,102.0 L 600,108.0 L 594.0,114.0 L 600,120.0 L 594.0,126.0 L 600,132.0 L 594.0,138.0 L 600,144.0 L 594.0,150.0 L 600,156.0 L 594.0,162.0 L 600,168.0 L 594.0,174.0 L 600,180.0 L 594.0,186.0 L 600,192.0 L 594.0,198.0 L 600,204.0 L 594.0,210.0 L 600,216.0 L 594.0,222.0 L 600,228.0 L 594.0,234.0 L 600,240.0 L 594.0,246.0 L 600,252.0 L 594.0,258.0 L 600,264.0 L 594.0,270.0 L 600,276.0 L 594.0,282.0 L 600,288.0 L 594.0,294.0 L 600,300.0 L 594.0,306.0 L 600,312.0 L 594.0,318.0 L 600,324.0 L 594.0,330.0 L 600,336.0 L 594.0,342.0 L 600,348.0 L 594.0,354.0 L 600,360.0 L 594.0,366.0 L 600,372.0 L 594.0,378.0 L 600,384.0 L 594.0,390.0 L 600,396.0 L 594.0,402.0 L 600,408.0 L 594.0,414.0 L 600,420.0 L 594.0,426.0 L 600,432.0 L 594.0,438.0 L 600,444.0 L 594.0,450.0 L 600,456.0 L 594.0,462.0 L 600,468.0 L 594.0,474.0 L 600,480.0 L 594.0,486.0 L 600,492.0 L 594.0,498.0 L 600,504.0 L 594.0,510.0 L 600,516.0 L 594.0,522.0 L 600,528.0 L 594.0,534.0 L 600,540.0 L 594.0,546.0 L 600,552.0 L 594.0,558.0 L 600,564.0 L 594.0,570.0 L 600,576.0 L 594.0,582.0 L 600,588.0 L 594.0,594.0 L 600,600.0 L 594.0,606.0 L 600,612.0 L 594.0,618.0 L 600,624.0 L 594.0,630.0 L 600,636.0 L 594.0,642.0 L 600,648.0 L 594.0,654.0 L 600,660.0 L 594.0,666.0 L 600,672.0 L 594.0,678.0 L 600,684.0 L 594.0,690.0 L 600,696.0 L 594.0,702.0 L 600,708.0 L 594.0,714.0 L 600,720.0 L 594.0,726.0 L 600,732.0 L 594.0,738.0 L 600,744.0 L 594.0,750.0 L 600,756.0 L 594.0,762.0 L 600,768.0 L 594.0,774.0 L 600,780.0 L 594.0,786.0 L 600,792.0 L 594.0,798.0 L 600,800 L 600,800 L 594.0,794.0 L 588.0,800 L 582.0,794.0 L 576.0,800 L 570.0,794.0 L 564.0,800 L 558.0,794.0 L 552.0,800 L 546.0,794.0 L 540.0,800 L 534.0,794.0 L 528.0,800 L 522.0,794.0 L 516.0,800 L 510.0,794.0 L 504.0,800 L 498.0,794.0 L 492.0,800 L 486.0,794.0 L 480.0,800 L 474.0,794.0 L 468.0,800 L 462.0,794.0 L 456.0,800 L 450.0,794.0 L 444.0,800 L 438.0,794.0 L 432.0,800 L 426.0,794.0 L 420.0,800 L 414.0,794.0 L 408.0,800 L 402.0,794.0 L 396.0,800 L 390.0,794.0 L 384.0,800 L 378.0,794.0 L 372.0,800 L 366.0,794.0 L 360.0,800 L 354.0,794.0 L 348.0,800 L 342.0,794.0 L 336.0,800 L 330.0,794.0 L 324.0,800 L 318.0,794.0 L 312.0,800 L 306.0,794.0 L 300.0,800 L 294.0,794.0 L 288.0,800 L 282.0,794.0 L 276.0,800 L 270.0,794.0 L 264.0,800 L 258.0,794.0 L 252.0,800 L 246.0,794.0 L 240.0,800 L 234.0,794.0 L 228.0,800 L 222.0,794.0 L 216.0,800 L 210.0,794.0 L 204.0,800 L 198.0,794.0 L 192.0,800 L 186.0,794.0 L 180.0,800 L 174.0,794.0 L 168.0,800 L 162.0,794.0 L 156.0,800 L 150.0,794.0 L 144.0,800 L 138.0,794.0 L 132.0,800 L 126.0,794.0 L 120.0,800 L 114.0,794.0 L 108.0,800 L 102.0,794.0 L 96.0,800 L 90.0,794.0 L 84.0,800 L 78.0,794.0 L 72.0,800 L 66.0,794.0 L 60.0,800 L 54.0,794.0 L 48.0,800 L 42.0,794.0 L 36.0,800 L 30.0,794.0 L 24.0,800 L 18.0,794.0 L 12.0,800 L 6.0,794.0 L 0.0,800 L 0,800 L 6.0,794.0 L 0,788.0 L 6.0,782.0 L 0,776.0 L 6.0,770.0 L 0,764.0 L 6.0,758.0 L 0,752.0 L 6.0,746.0 L 0,740.0 L 6.0,734.0 L 0,728.0 L 6.0,722.0 L 0,716.0 L 6.0,710.0 L 0,704.0 L 6.0,698.0 L 0,692.0 L 6.0,686.0 L 0,680.0 L 6.0,674.0 L 0,668.0 L 6.0,662.0 L 0,656.0 L 6.0,650.0 L 0,644.0 L 6.0,638.0 L 0,632.0 L 6.0,626.0 L 0,620.0 L 6.0,614.0 L 0,608.0 L 6.0,602.0 L 0,596.0 L 6.0,590.0 L 0,584.0 L 6.0,578.0 L 0,572.0 L 6.0,566.0 L 0,560.0 L 6.0,554.0 L 0,548.0 L 6.0,542.0 L 0,536.0 L 6.0,530.0 L 0,524.0 L 6.0,518.0 L 0,512.0 L 6.0,506.0 L 0,500.0 L 6.0,494.0 L 0,488.0 L 6.0,482.0 L 0,476.0 L 6.0,470.0 L 0,464.0 L 6.0,458.0 L 0,452.0 L 6.0,446.0 L 0,440.0 L 6.0,434.0 L 0,428.0 L 6.0,422.0 L 0,416.0 L 6.0,410.0 L 0,404.0 L 6.0,398.0 L 0,392.0 L 6.0,386.0 L 0,380.0 L 6.0,374.0 L 0,368.0 L 6.0,362.0 L 0,356.0 L 6.0,350.0 L 0,344.0 L 6.0,338.0 L 0,332.0 L 6.0,326.0 L 0,320.0 L 6.0,314.0 L 0,308.0 L 6.0,302.0 L 0,296.0 L 6.0,290.0 L 0,284.0 L 6.0,278.0 L 0,272.0 L 6.0,266.0 L 0,260.0 L 6.0,254.0 L 0,248.0 L 6.0,242.0 L 0,236.0 L 6.0,230.0 L 0,224.0 L 6.0,218.0 L 0,212.0 L 6.0,206.0 L 0,200.0 L 6.0,194.0 L 0,188.0 L 6.0,182.0 L 0,176.0 L 6.0,170.0 L 0,164.0 L 6.0,158.0 L 0,152.0 L 6.0,146.0 L 0,140.0 L 6.0,134.0 L 0,128.0 L 6.0,122.0 L 0,116.0 L 6.0,110.0 L 0,104.0 L 6.0,98.0 L 0,92.0 L 6.0,86.0 L 0,80.0 L 6.0,74.0 L 0,68.0 L 6.0,62.0 L 0,56.0 L 6.0,50.0 L 0,44.0 L 6.0,38.0 L 0,32.0 L 6.0,26.0 L 0,20.0 L 6.0,14.0 L 0,8.0 L 6.0,2.0 L 0,0 Z" fill="#111111" filter="url(#noise)" opacity="0.6"/>
  
  <!-- Serrated Border Stroke -->
  <path d="M 0,0 L 6.0,6.0 L 12.0,0 L 18.0,6.0 L 24.0,0 L 30.0,6.0 L 36.0,0 L 42.0,6.0 L 48.0,0 L 54.0,6.0 L 60.0,0 L 66.0,6.0 L 72.0,0 L 78.0,6.0 L 84.0,0 L 90.0,6.0 L 96.0,0 L 102.0,6.0 L 108.0,0 L 114.0,6.0 L 120.0,0 L 126.0,6.0 L 132.0,0 L 138.0,6.0 L 144.0,0 L 150.0,6.0 L 156.0,0 L 162.0,6.0 L 168.0,0 L 174.0,6.0 L 180.0,0 L 186.0,6.0 L 192.0,0 L 198.0,6.0 L 204.0,0 L 210.0,6.0 L 216.0,0 L 222.0,6.0 L 228.0,0 L 234.0,6.0 L 240.0,0 L 246.0,6.0 L 252.0,0 L 258.0,6.0 L 264.0,0 L 270.0,6.0 L 276.0,0 L 282.0,6.0 L 288.0,0 L 294.0,6.0 L 300.0,0 L 306.0,6.0 L 312.0,0 L 318.0,6.0 L 324.0,0 L 330.0,6.0 L 336.0,0 L 342.0,6.0 L 348.0,0 L 354.0,6.0 L 360.0,0 L 366.0,6.0 L 372.0,0 L 378.0,6.0 L 384.0,0 L 390.0,6.0 L 396.0,0 L 402.0,6.0 L 408.0,0 L 414.0,6.0 L 420.0,0 L 426.0,6.0 L 432.0,0 L 438.0,6.0 L 444.0,0 L 450.0,6.0 L 456.0,0 L 462.0,6.0 L 468.0,0 L 474.0,6.0 L 480.0,0 L 486.0,6.0 L 492.0,0 L 498.0,6.0 L 504.0,0 L 510.0,6.0 L 516.0,0 L 522.0,6.0 L 528.0,0 L 534.0,6.0 L 540.0,0 L 546.0,6.0 L 552.0,0 L 558.0,6.0 L 564.0,0 L 570.0,6.0 L 576.0,0 L 582.0,6.0 L 588.0,0 L 594.0,6.0 L 600.0,0 L 600,0 L 594.0,6.0 L 600,12.0 L 594.0,18.0 L 600,24.0 L 594.0,30.0 L 600,36.0 L 594.0,42.0 L 600,48.0 L 594.0,54.0 L 600,60.0 L 594.0,66.0 L 600,72.0 L 594.0,78.0 L 600,84.0 L 594.0,90.0 L 600,96.0 L 594.0,102.0 L 600,108.0 L 594.0,114.0 L 600,120.0 L 594.0,126.0 L 600,132.0 L 594.0,138.0 L 600,144.0 L 594.0,150.0 L 600,156.0 L 594.0,162.0 L 600,168.0 L 594.0,174.0 L 600,180.0 L 594.0,186.0 L 600,192.0 L 594.0,198.0 L 600,204.0 L 594.0,210.0 L 600,216.0 L 594.0,222.0 L 600,228.0 L 594.0,234.0 L 600,240.0 L 594.0,246.0 L 600,252.0 L 594.0,258.0 L 600,264.0 L 594.0,270.0 L 600,276.0 L 594.0,282.0 L 600,288.0 L 594.0,294.0 L 600,300.0 L 594.0,306.0 L 600,312.0 L 594.0,318.0 L 600,324.0 L 594.0,330.0 L 600,336.0 L 594.0,342.0 L 600,348.0 L 594.0,354.0 L 600,360.0 L 594.0,366.0 L 600,372.0 L 594.0,378.0 L 600,384.0 L 594.0,390.0 L 600,396.0 L 594.0,402.0 L 600,408.0 L 594.0,414.0 L 600,420.0 L 594.0,426.0 L 600,432.0 L 594.0,438.0 L 600,444.0 L 594.0,450.0 L 600,456.0 L 594.0,462.0 L 600,468.0 L 594.0,474.0 L 600,480.0 L 594.0,486.0 L 600,492.0 L 594.0,498.0 L 600,504.0 L 594.0,510.0 L 600,516.0 L 594.0,522.0 L 600,528.0 L 594.0,534.0 L 600,540.0 L 594.0,546.0 L 600,552.0 L 594.0,558.0 L 600,564.0 L 594.0,570.0 L 600,576.0 L 594.0,582.0 L 600,588.0 L 594.0,594.0 L 600,600.0 L 594.0,606.0 L 600,612.0 L 594.0,618.0 L 600,624.0 L 594.0,630.0 L 600,636.0 L 594.0,642.0 L 600,648.0 L 594.0,654.0 L 600,660.0 L 594.0,666.0 L 600,672.0 L 594.0,678.0 L 600,684.0 L 594.0,690.0 L 600,696.0 L 594.0,702.0 L 600,708.0 L 594.0,714.0 L 600,720.0 L 594.0,726.0 L 600,732.0 L 594.0,738.0 L 600,744.0 L 594.0,750.0 L 600,756.0 L 594.0,762.0 L 600,768.0 L 594.0,774.0 L 600,780.0 L 594.0,786.0 L 600,792.0 L 594.0,798.0 L 600,800 L 600,800 L 594.0,794.0 L 588.0,800 L 582.0,794.0 L 576.0,800 L 570.0,794.0 L 564.0,800 L 558.0,794.0 L 552.0,800 L 546.0,794.0 L 540.0,800 L 534.0,794.0 L 528.0,800 L 522.0,794.0 L 516.0,800 L 510.0,794.0 L 504.0,800 L 498.0,794.0 L 492.0,800 L 486.0,794.0 L 480.0,800 L 474.0,794.0 L 468.0,800 L 462.0,794.0 L 456.0,800 L 450.0,794.0 L 444.0,800 L 438.0,794.0 L 432.0,800 L 426.0,794.0 L 420.0,800 L 414.0,794.0 L 408.0,800 L 402.0,794.0 L 396.0,800 L 390.0,794.0 L 384.0,800 L 378.0,794.0 L 372.0,800 L 366.0,794.0 L 360.0,800 L 354.0,794.0 L 348.0,800 L 342.0,794.0 L 336.0,800 L 330.0,794.0 L 324.0,800 L 318.0,794.0 L 312.0,800 L 306.0,794.0 L 300.0,800 L 294.0,794.0 L 288.0,800 L 282.0,794.0 L 276.0,800 L 270.0,794.0 L 264.0,800 L 258.0,794.0 L 252.0,800 L 246.0,794.0 L 240.0,800 L 234.0,794.0 L 228.0,800 L 222.0,794.0 L 216.0,800 L 210.0,794.0 L 204.0,800 L 198.0,794.0 L 192.0,800 L 186.0,794.0 L 180.0,800 L 174.0,794.0 L 168.0,800 L 162.0,794.0 L 156.0,800 L 150.0,794.0 L 144.0,800 L 138.0,794.0 L 132.0,800 L 126.0,794.0 L 120.0,800 L 114.0,794.0 L 108.0,800 L 102.0,794.0 L 96.0,800 L 90.0,794.0 L 84.0,800 L 78.0,794.0 L 72.0,800 L 66.0,794.0 L 60.0,800 L 54.0,794.0 L 48.0,800 L 42.0,794.0 L 36.0,800 L 30.0,794.0 L 24.0,800 L 18.0,794.0 L 12.0,800 L 6.0,794.0 L 0.0,800 L 0,800 L 6.0,794.0 L 0,788.0 L 6.0,782.0 L 0,776.0 L 6.0,770.0 L 0,764.0 L 6.0,758.0 L 0,752.0 L 6.0,746.0 L 0,740.0 L 6.0,734.0 L 0,728.0 L 6.0,722.0 L 0,716.0 L 6.0,710.0 L 0,704.0 L 6.0,698.0 L 0,692.0 L 6.0,686.0 L 0,680.0 L 6.0,674.0 L 0,668.0 L 6.0,662.0 L 0,656.0 L 6.0,650.0 L 0,644.0 L 6.0,638.0 L 0,632.0 L 6.0,626.0 L 0,620.0 L 6.0,614.0 L 0,608.0 L 6.0,602.0 L 0,596.0 L 6.0,590.0 L 0,584.0 L 6.0,578.0 L 0,572.0 L 6.0,566.0 L 0,560.0 L 6.0,554.0 L 0,548.0 L 6.0,542.0 L 0,536.0 L 6.0,530.0 L 0,524.0 L 6.0,518.0 L 0,512.0 L 6.0,506.0 L 0,500.0 L 6.0,494.0 L 0,488.0 L 6.0,482.0 L 0,476.0 L 6.0,470.0 L 0,464.0 L 6.0,458.0 L 0,452.0 L 6.0,446.0 L 0,440.0 L 6.0,434.0 L 0,428.0 L 6.0,422.0 L 0,416.0 L 6.0,410.0 L 0,404.0 L 6.0,398.0 L 0,392.0 L 6.0,386.0 L 0,380.0 L 6.0,374.0 L 0,368.0 L 6.0,362.0 L 0,356.0 L 6.0,350.0 L 0,344.0 L 6.0,338.0 L 0,332.0 L 6.0,326.0 L 0,320.0 L 6.0,314.0 L 0,308.0 L 6.0,302.0 L 0,296.0 L 6.0,290.0 L 0,284.0 L 6.0,278.0 L 0,272.0 L 6.0,266.0 L 0,260.0 L 6.0,254.0 L 0,248.0 L 6.0,242.0 L 0,236.0 L 6.0,230.0 L 0,224.0 L 6.0,218.0 L 0,212.0 L 6.0,206.0 L 0,200.0 L 6.0,194.0 L 0,188.0 L 6.0,182.0 L 0,176.0 L 6.0,170.0 L 0,164.0 L 6.0,158.0 L 0,152.0 L 6.0,146.0 L 0,140.0 L 6.0,134.0 L 0,128.0 L 6.0,122.0 L 0,116.0 L 6.0,110.0 L 0,104.0 L 6.0,98.0 L 0,92.0 L 6.0,86.0 L 0,80.0 L 6.0,74.0 L 0,68.0 L 6.0,62.0 L 0,56.0 L 6.0,50.0 L 0,44.0 L 6.0,38.0 L 0,32.0 L 6.0,26.0 L 0,20.0 L 6.0,14.0 L 0,8.0 L 6.0,2.0 L 0,0 Z" fill="none" stroke="#333" stroke-width="2" />

  <!-- Inner Content Container (Inset to avoid teeth) -->
  <g transform="translate(15, 15)">
      <!-- Main Border Frame -->
      <!-- Outer metallic border -->
      <rect x="0" y="0" width="570" height="770" fill="none" stroke="url(#borderGradient)" stroke-width="3"/>
      
      <!-- Inner thin border -->
      <rect x="6" y="6" width="558" height="758" fill="none" stroke="#333" stroke-width="1"/>
    
      <!-- Top Decoration -->
      <g transform="translate(-10, 0)">
        <path d="M 40,40 Q 60,30 80,40 T 120,40 T 160,40 L 440,40 Q 480,30 500,40 T 540,40" stroke="#888" stroke-width="2" fill="none"/>
        <circle cx="35" cy="40" r="3" fill="#888" />
        <circle cx="545" cy="40" r="3" fill="#888" />
      </g>
    
      <!-- Section Separator 1 (Header) -->
      <g transform="translate(-10, 120)">
          <line x1="20" y1="0" x2="250" y2="0" stroke="#666" stroke-width="1.5" />
          <line x1="350" y1="0" x2="580" y2="0" stroke="#666" stroke-width="1.5" />
          <!-- Central ornament -->
          <path d="M 250,0 Q 275,-10 300,0 Q 325,10 350,0" stroke="#888" stroke-width="2" fill="none"/>
          <circle cx="300" cy="0" r="2" fill="#aaa" />
      </g>
    
      <!-- Section Separators -->
      <g transform="translate(-10, 0)">
          <g transform="translate(0, 200)"><line x1="20" y1="0" x2="580" y2="0" stroke="#333" stroke-width="1" /></g>
          <g transform="translate(0, 280)"><line x1="20" y1="0" x2="580" y2="0" stroke="#333" stroke-width="1" /></g>
          <g transform="translate(0, 360)"><line x1="20" y1="0" x2="580" y2="0" stroke="#333" stroke-width="1" /></g>
          <g transform="translate(0, 440)"><line x1="20" y1="0" x2="580" y2="0" stroke="#333" stroke-width="1" /></g>
          <g transform="translate(0, 520)"><line x1="20" y1="0" x2="580" y2="0" stroke="#333" stroke-width="1" /></g>
      </g>
      
      <!-- Bottom Decoration -->
      <g transform="translate(-10, 680)">
          <line x1="40" y1="0" x2="250" y2="0" stroke="#666" stroke-width="1.5" />
          <line x1="350" y1="0" x2="560" y2="0" stroke="#666" stroke-width="1.5" />
          <path d="M 250,0 Q 275,10 300,0 Q 325,-10 350,0" stroke="#888" stroke-width="2" fill="none"/>
          <circle cx="300" cy="0" r="2" fill="#aaa" />
      </g>
    
      <!-- Footer Area -->
      <rect x="4" y="700" width="562" height="66" fill="url(#footerGradient)" opacity="0.6"/>
      <g transform="translate(-10, 0)">
          <line x1="20" y1="700" x2="580" y2="700" stroke="#666" stroke-width="2" />
          <!-- Footer bottom decorative line -->
          <line x1="40" y1="750" x2="560" y2="750" stroke="#555" stroke-width="1" />
          <circle cx="560" cy="750" r="2" fill="#888" />
          <circle cx="40" cy="750" r="2" fill="#888" />
      </g>
  </g>

</svg>
